REM DIRINDEX 1\2,1\3
REM DIRNAME cjc140,folder01,folder02
TITLE ""
FILE "Track35.mp3" MP3
  TRACK 01 AUDIO
    TITLE "0:"
    INDEX 01 00:00:00
  TRACK 02 AUDIO
    TITLE "3:cjc140_118"
    INDEX 01 00:00:05
  TRACK 03 AUDIO
    TITLE "2:cjc140_119"
    INDEX 01 00:01:73
  TRACK 04 AUDIO
    TITLE "2:cjc140_120"
    INDEX 01 00:09:18
  TRACK 05 AUDIO
    TITLE "2:cjc140_121"
    INDEX 01 00:11:25
  TRACK 06 AUDIO
    TITLE "0:"
    INDEX 01 00:16:26
